<?xml version="1.0" encoding="utf-8"?>
<svg viewBox="70.723 49.324 300 300" xmlns="http://www.w3.org/2000/svg">
  <defs>
    <clipPath id="cpMC4wMHwyODMuNDZ8MC4wMHwyODMuNDY=">
      <rect x="0.00" y="0.00" width="283.46" height="283.46" style="fill: none; stroke: rgb(0, 0, 0); stroke-linecap: round; stroke-linejoin: round; stroke-miterlimit: 10;"/>
    </clipPath>
    <clipPath id="cpMzguMTZ8Mjc3Ljk5fDUuNDh8MjUxLjcz">
      <rect x="38.16" y="5.48" width="239.82" height="246.25" style="fill: none; stroke: rgb(0, 0, 0); stroke-linecap: round; stroke-linejoin: round; stroke-miterlimit: 10;"/>
    </clipPath>
  </defs>
  <g clip-path="url(#cpMzguMTZ8Mjc3Ljk5fDUuNDh8MjUxLjcz)" transform="matrix(1, 0, 0, 1, 75.817612, 62.853802)">
    <polyline points="38.16,240.54 277.99,240.54 " style="stroke-width: 1.07; stroke: rgb(235, 235, 235); stroke-linecap: butt; fill: none; stroke-linejoin: round; stroke-miterlimit: 10;"/>
    <polyline points="38.16,171.20 277.99,171.20 " style="stroke-width: 1.07; stroke: rgb(235, 235, 235); stroke-linecap: butt; fill: none; stroke-linejoin: round; stroke-miterlimit: 10;"/>
    <polyline points="38.16,101.87 277.99,101.87 " style="stroke-width: 1.07; stroke: rgb(235, 235, 235); stroke-linecap: butt; fill: none; stroke-linejoin: round; stroke-miterlimit: 10;"/>
    <polyline points="38.16,32.53 277.99,32.53 " style="stroke-width: 1.07; stroke: rgb(235, 235, 235); stroke-linecap: butt; fill: none; stroke-linejoin: round; stroke-miterlimit: 10;"/>
    <polyline points="49.06,251.73 49.06,5.48 " style="stroke-width: 1.07; stroke: rgb(235, 235, 235); stroke-linecap: butt; fill: none; stroke-linejoin: round; stroke-miterlimit: 10;"/>
    <polyline points="103.66,251.73 103.66,5.48 " style="stroke-width: 1.07; stroke: rgb(235, 235, 235); stroke-linecap: butt; fill: none; stroke-linejoin: round; stroke-miterlimit: 10;"/>
    <polyline points="158.26,251.73 158.26,5.48 " style="stroke-width: 1.07; stroke: rgb(235, 235, 235); stroke-linecap: butt; fill: none; stroke-linejoin: round; stroke-miterlimit: 10;"/>
    <polyline points="212.86,251.73 212.86,5.48 " style="stroke-width: 1.07; stroke: rgb(235, 235, 235); stroke-linecap: butt; fill: none; stroke-linejoin: round; stroke-miterlimit: 10;"/>
    <polyline points="267.46,251.73 267.46,5.48 " style="stroke-width: 1.07; stroke: rgb(235, 235, 235); stroke-linecap: butt; fill: none; stroke-linejoin: round; stroke-miterlimit: 10;"/>
    <polyline points="49.06,240.54 51.24,231.67 53.42,222.99 55.61,214.48 57.79,206.15 59.97,198.00 62.15,190.03 64.33,182.24 66.51,174.63 68.69,167.20 70.87,159.95 73.05,152.87 75.23,145.98 77.41,139.26 79.59,132.72 81.77,126.37 83.95,120.19 86.13,114.19 88.31,108.37 90.49,102.73 92.67,97.26 94.85,91.98 97.03,86.88 99.21,81.95 101.39,77.21 103.57,72.64 105.75,68.25 107.93,64.04 110.11,60.01 112.29,56.16 114.47,52.49 116.65,49.00 118.83,45.69 121.01,42.55 123.19,39.60 125.37,36.82 127.55,34.22 129.73,31.81 131.91,29.57 134.09,27.51 136.27,25.63 138.45,23.93 140.63,22.40 142.81,21.06 144.99,19.90 147.17,18.91 149.35,18.11 151.53,17.48 153.71,17.03 155.89,16.76 158.07,16.67 160.25,16.76 162.43,17.03 164.61,17.48 166.80,18.11 168.98,18.91 171.16,19.90 173.34,21.06 175.52,22.40 177.70,23.93 179.88,25.63 182.06,27.51 184.24,29.57 186.42,31.81 188.60,34.22 190.78,36.82 192.96,39.60 195.14,42.55 197.32,45.69 199.50,49.00 201.68,52.49 203.86,56.16 206.04,60.01 208.22,64.04 210.40,68.25 212.58,72.64 214.76,77.21 216.94,81.95 219.12,86.88 221.30,91.98 223.48,97.26 225.66,102.73 227.84,108.37 230.02,114.19 232.20,120.19 234.38,126.37 236.56,132.72 238.74,139.26 240.92,145.98 243.10,152.87 245.28,159.95 247.46,167.20 249.64,174.63 251.82,182.24 254.00,190.03 256.18,198.00 258.36,206.15 260.54,214.48 262.72,222.99 264.90,231.67 267.08,240.54 " style="stroke-width: 1.07; stroke-linecap: butt; fill: none; stroke: rgb(0, 0, 0); stroke-linejoin: round; stroke-miterlimit: 10;"/>
    <line x1="38.16" y1="93.40" x2="277.99" y2="93.40" style="stroke-width: 1.07; stroke: rgb(255, 0, 0); stroke-linecap: butt; fill: none; stroke-linejoin: round; stroke-miterlimit: 10;"/>
    <rect x="38.16" y="5.48" width="239.82" height="246.25" style="stroke-width: 1.07; stroke: rgb(51, 51, 51); fill: none; stroke-linecap: round; stroke-linejoin: round; stroke-miterlimit: 10;"/>
  </g>
  <g clip-path="url(#cpMC4wMHwyODMuNDZ8MC4wMHwyODMuNDY=)" transform="matrix(1, 0, 0, 1, 75.817612, 62.853802)">
    <text x="33.23" y="243.69" text-anchor="end" style="font-size: 8.8px; fill: rgb(77, 77, 77); font-family: Arial; white-space: pre;" textLength="4.90px" lengthAdjust="spacingAndGlyphs">0</text>
    <text x="33.23" y="174.36" text-anchor="end" style="font-size: 8.8px; fill: rgb(77, 77, 77); font-family: Arial; white-space: pre;" textLength="14.69px" lengthAdjust="spacingAndGlyphs">100</text>
    <text x="33.23" y="105.02" text-anchor="end" style="font-size: 8.8px; fill: rgb(77, 77, 77); font-family: Arial; white-space: pre;" textLength="14.69px" lengthAdjust="spacingAndGlyphs">200</text>
    <text x="33.23" y="35.69" text-anchor="end" style="font-size: 8.8px; fill: rgb(77, 77, 77); font-family: Arial; white-space: pre;" textLength="14.69px" lengthAdjust="spacingAndGlyphs">300</text>
    <polyline points="35.42,240.54 38.16,240.54 " style="stroke-width: 1.07; stroke: rgb(51, 51, 51); stroke-linecap: butt; fill: none; stroke-linejoin: round; stroke-miterlimit: 10;"/>
    <polyline points="35.42,171.20 38.16,171.20 " style="stroke-width: 1.07; stroke: rgb(51, 51, 51); stroke-linecap: butt; fill: none; stroke-linejoin: round; stroke-miterlimit: 10;"/>
    <polyline points="35.42,101.87 38.16,101.87 " style="stroke-width: 1.07; stroke: rgb(51, 51, 51); stroke-linecap: butt; fill: none; stroke-linejoin: round; stroke-miterlimit: 10;"/>
    <polyline points="35.42,32.53 38.16,32.53 " style="stroke-width: 1.07; stroke: rgb(51, 51, 51); stroke-linecap: butt; fill: none; stroke-linejoin: round; stroke-miterlimit: 10;"/>
    <polyline points="49.06,254.47 49.06,251.73 " style="stroke-width: 1.07; stroke: rgb(51, 51, 51); stroke-linecap: butt; fill: none; stroke-linejoin: round; stroke-miterlimit: 10;"/>
    <polyline points="103.66,254.47 103.66,251.73 " style="stroke-width: 1.07; stroke: rgb(51, 51, 51); stroke-linecap: butt; fill: none; stroke-linejoin: round; stroke-miterlimit: 10;"/>
    <polyline points="158.26,254.47 158.26,251.73 " style="stroke-width: 1.07; stroke: rgb(51, 51, 51); stroke-linecap: butt; fill: none; stroke-linejoin: round; stroke-miterlimit: 10;"/>
    <polyline points="212.86,254.47 212.86,251.73 " style="stroke-width: 1.07; stroke: rgb(51, 51, 51); stroke-linecap: butt; fill: none; stroke-linejoin: round; stroke-miterlimit: 10;"/>
    <polyline points="267.46,254.47 267.46,251.73 " style="stroke-width: 1.07; stroke: rgb(51, 51, 51); stroke-linecap: butt; fill: none; stroke-linejoin: round; stroke-miterlimit: 10;"/>
    <text x="49.06" y="262.97" text-anchor="middle" style="font-size: 8.8px; fill: rgb(77, 77, 77); font-family: Arial; white-space: pre;" textLength="12.23px" lengthAdjust="spacingAndGlyphs">0.0</text>
    <text x="103.66" y="262.97" text-anchor="middle" style="font-size: 8.8px; fill: rgb(77, 77, 77); font-family: Arial; white-space: pre;" textLength="12.23px" lengthAdjust="spacingAndGlyphs">2.5</text>
    <text x="158.26" y="262.97" text-anchor="middle" style="font-size: 8.8px; fill: rgb(77, 77, 77); font-family: Arial; white-space: pre;" textLength="12.23px" lengthAdjust="spacingAndGlyphs">5.0</text>
    <text x="212.86" y="262.97" text-anchor="middle" style="font-size: 8.8px; fill: rgb(77, 77, 77); font-family: Arial; white-space: pre;" textLength="12.23px" lengthAdjust="spacingAndGlyphs">7.5</text>
    <text x="267.46" y="262.97" text-anchor="middle" style="font-size: 8.8px; fill: rgb(77, 77, 77); font-family: Arial; white-space: pre;" textLength="17.13px" lengthAdjust="spacingAndGlyphs">10.0</text>
  </g>
  <text style="fill: rgb(255, 0, 0); font-family: Arial, sans-serif; font-size: 11.6px; white-space: pre;" x="118.095" y="151.982">Record</text>
  <text style="font-family: Arial, sans-serif; font-size: 14px; white-space: pre; transform-box: fill-box; transform-origin: 41.4172% 42.4532%;" transform="matrix(0, -1, 1, 0, 47.868583, 15.8254)" x="-5.609" y="193.359">Distance (Mkm)</text>
  <text style="font-family: Arial, sans-serif; font-size: 14px; white-space: pre; transform-origin: 225.437px 336.808px;" x="184.841" y="340.904">Charge time (h)</text>
</svg>